<mxfile host="app.diagrams.net" modified="2023-03-28T08:11:54.082Z" agent="Mozilla/5.0 (Windows NT 10.0; Win64; x64) AppleWebKit/537.36 (KHTML, like Gecko) Chrome/103.0.0.0 Safari/537.36" version="21.1.1" etag="KFtVQTjWXq9ixk4oX0JE" type="github">
  <diagram name="第 1 页" id="nSMgeJaRLkUhCgwS0WUQ">
    <mxGraphModel>
      <root>
        <mxCell id="0" />
        <mxCell id="1" parent="0" />
      </root>
    </mxGraphModel>
  </diagram>
</mxfile>
